<?xml version="1.0" encoding="utf-8"?>
<!-- Generator: Adobe Illustrator 27.5.0, SVG Export Plug-In . SVG Version: 6.00 Build 0)  -->
<svg version="1.1" id="Layer_1" xmlns="http://www.w3.org/2000/svg" xmlns:xlink="http://www.w3.org/1999/xlink" x="0px" y="0px"
	 viewBox="0 0 1200 1200" style="enable-background:new 0 0 1200 1200;" xml:space="preserve">
<g>
	<rect y="0.088" style="fill:#64B8CB;" width="1200" height="1200"/>
</g>
<g>
	<g>
		<path style="fill:#FFFFFF;" d="M195.813,606.714c-1.28-110.842,42.41-221.811,129.944-302.896
			c87.535-81.087,201.517-116.176,311.938-106.435l2.951-2.735c-7.686-0.724-15.417-1.261-23.194-1.557
			c-109.178-4.175-213.45,34.418-293.601,108.665c-80.154,74.25-126.598,175.271-130.773,284.451
			c-0.299,7.775-0.354,15.524-0.22,23.246L195.813,606.714z"/>
		<path style="fill:#FFFFFF;" d="M952.495,396.721l2.185-2.027c-14.829-25.151-32.454-48.9-52.776-70.833
			c-28.899-31.199-61.872-57.264-97.784-77.744l-2.284,2.116c35.615,20.115,68.761,45.963,98.009,77.536
			C920.336,347.887,937.857,371.708,952.495,396.721z"/>
		<path style="fill:#FFFFFF;" d="M1004.731,551.226c15.588,125.426-27.246,256.368-126.841,348.629
			c-164.328,152.223-421.861,142.377-574.084-21.955c-29.25-31.571-52.491-66.6-69.825-103.643l-2.287,2.115
			c17.68,37.373,41.149,72.237,70.05,103.434c74.251,80.162,175.27,126.603,284.447,130.773
			c109.182,4.179,213.454-34.41,293.606-108.665c80.156-74.246,126.596-175.267,130.772-284.448
			c0.889-23.212-0.176-46.2-3.088-68.788L1004.731,551.226z"/>
	</g>
	<g>
		<path style="fill:#FFFFFF;" d="M306.558,439.984c12.415-22.644,27.623-44.207,45.7-64.167
			c122.077-134.798,329.27-147.672,467.037-31.012l1.808-1.997c-65.937-55.904-149.302-84.245-236.06-79.949
			c-90.544,4.484-173.924,43.958-234.777,111.154c-18.415,20.333-34.08,42.478-46.879,65.971H306.558z"/>
		<path style="fill:#FFFFFF;" d="M265.838,582.428h-2.87c-0.663,11.975-0.722,24.05-0.12,36.192
			c4.296,86.753,40.732,166.918,102.878,227.007l1.806-1.997C294.81,773.226,260.47,677.079,265.838,582.428z"/>
		<path style="fill:#FFFFFF;" d="M900.32,439.984c-3.412-6.283-7.034-12.463-10.85-18.529l-1.975,2.178
			c3.352,5.375,6.521,10.832,9.545,16.352H900.32z"/>
		<path style="fill:#FFFFFF;" d="M940.657,582.428h-2.872c5.035,87-23.4,175.884-86.386,245.433
			C748.207,941.807,584.2,968.602,452.717,903.711l-1.975,2.181c51.446,25.666,108.873,37.846,167.872,34.923
			c90.544-4.481,173.921-43.958,234.78-111.15c60.851-67.192,91.898-154.066,87.414-244.611
			C940.767,584.178,940.706,583.303,940.657,582.428z"/>
	</g>
	<g>
		<path style="fill:#FFFFFF;" d="M739.226,939.144c4.95-2.07,9.918-4.273,14.768-6.559l-1.146-2.432
			c-4.811,2.269-9.746,4.46-14.656,6.511L739.226,939.144z"/>
		<path style="fill:#FFFFFF;" d="M307.191,818.527l-2.153,1.604c3.203,4.303,6.545,8.585,9.927,12.723l2.083-1.699
			C313.69,827.045,310.376,822.794,307.191,818.527z"/>
		<path style="fill:#FFFFFF;" d="M289.214,792.038l-2.29,1.41c2.806,4.552,5.751,9.111,8.76,13.538l2.223-1.509
			C294.923,801.078,291.999,796.559,289.214,792.038z"/>
		<path style="fill:#FFFFFF;" d="M250.244,704.381l-2.58,0.756c1.51,5.156,3.154,10.338,4.886,15.405l2.54-0.868
			C253.372,714.644,251.742,709.495,250.244,704.381z"/>
		<path style="fill:#FFFFFF;" d="M349.834,866.287l-1.839,1.958c3.902,3.662,7.948,7.293,12.019,10.793l1.75-2.034
			C357.722,873.528,353.707,869.922,349.834,866.287z"/>
		<path style="fill:#FFFFFF;" d="M273.648,764.041l-2.408,1.201c2.396,4.794,4.935,9.606,7.54,14.293l2.348-1.307
			C278.541,773.575,276.023,768.802,273.648,764.041z"/>
		<path style="fill:#FFFFFF;" d="M260.617,734.733l-2.501,0.984c1.96,4.995,4.056,10.009,6.233,14.903l2.454-1.088
			C264.646,744.672,262.563,739.694,260.617,734.733z"/>
		<path style="fill:#FFFFFF;" d="M708.883,950.254c5.113-1.618,10.258-3.371,15.293-5.216l-0.926-2.521
			c-4.995,1.829-10.103,3.573-15.181,5.176L708.883,950.254z"/>
		<path style="fill:#FFFFFF;" d="M645.506,961.572l0.349,2.666c5.32-0.699,10.695-1.525,15.973-2.455l-0.464-2.646
			C656.118,960.06,650.783,960.882,645.506,961.572z"/>
		<path style="fill:#FFFFFF;" d="M677.099,956.008l0.576,2.625c5.238-1.163,10.521-2.455,15.696-3.845l-0.694-2.593
			C687.538,953.569,682.297,954.856,677.099,956.008z"/>
		<path style="fill:#FFFFFF;" d="M374.157,887.185l-1.659,2.116c4.219,3.314,8.568,6.577,12.924,9.698l1.565-2.186
			C382.663,893.717,378.348,890.473,374.157,887.185z"/>
		<path style="fill:#FFFFFF;" d="M400.232,905.875l-1.468,2.251c4.494,2.931,9.114,5.801,13.734,8.532l1.366-2.314
			C409.281,911.632,404.695,908.787,400.232,905.875z"/>
		<path style="fill:#FFFFFF;" d="M466.885,940.109c-3.373-1.313-6.738-2.663-10.052-4.065l-1.048,2.474
			c3.784,1.608,7.642,3.142,11.494,4.627L466.885,940.109z"/>
		<path style="fill:#FFFFFF;" d="M427.859,922.208l-1.265,2.371c4.739,2.524,9.595,4.979,14.44,7.29l1.157-2.426
			C437.385,927.148,432.562,924.712,427.859,922.208z"/>
		<path style="fill:#FFFFFF;" d="M327.453,843.34l-2.005,1.791c3.57,3.993,7.278,7.968,11.02,11.804l1.923-1.878
			C334.675,851.25,330.996,847.306,327.453,843.34z"/>
		<path style="fill:#FFFFFF;" d="M317.939,371.872l-2.076-1.707c-3.409,4.153-6.767,8.43-9.976,12.712l2.154,1.612
			C311.223,380.24,314.556,375.995,317.939,371.872z"/>
		<path style="fill:#FFFFFF;" d="M361.026,324.082c-4.067,3.477-8.117,7.096-12.039,10.76l1.836,1.964
			c3.893-3.638,7.911-7.231,11.946-10.681L361.026,324.082z"/>
		<path style="fill:#FFFFFF;" d="M337.435,346.124c-3.746,3.824-7.464,7.785-11.048,11.782l1.999,1.796
			c3.56-3.967,7.247-7.903,10.966-11.696L337.435,346.124z"/>
		<path style="fill:#FFFFFF;" d="M384.157,305.892c-3.587,2.597-7.158,5.259-10.636,7.975l1.655,2.117
			c3.069-2.398,6.215-4.748,9.377-7.056L384.157,305.892z"/>
		<path style="fill:#FFFFFF;" d="M534.659,244.97l-0.47-2.646c-4.762,0.844-9.561,1.807-14.308,2.843l0.351,2.673
			C525.014,246.791,529.855,245.821,534.659,244.97z"/>
		<path style="fill:#FFFFFF;" d="M613.697,964.359l0.346,2.674c5.235-0.235,10.534-0.579,15.751-1.034l-0.233-2.68
			C624.308,963.78,618.966,964.129,613.697,964.359z"/>
		<path style="fill:#FFFFFF;" d="M296.478,396.021c-3.027,4.428-5.996,8.985-8.826,13.544l2.284,1.418
			c2.809-4.525,5.755-9.051,8.76-13.448L296.478,396.021z"/>
		<path style="fill:#FFFFFF;" d="M279.433,423.49c-2.622,4.674-5.181,9.476-7.601,14.277l2.4,1.211
			c2.404-4.765,4.941-9.53,7.543-14.171L279.433,423.49z"/>
		<path style="fill:#FFFFFF;" d="M243.66,513.462c-1.304,5.212-2.507,10.529-3.579,15.801l2.636,0.534
			c1.063-5.233,2.257-10.508,3.552-15.681L243.66,513.462z"/>
		<path style="fill:#FFFFFF;" d="M264.866,452.367c-2.204,4.897-4.327,9.911-6.31,14.9l2.495,0.992
			c1.973-4.951,4.08-9.927,6.268-14.788L264.866,452.367z"/>
		<path style="fill:#FFFFFF;" d="M252.907,482.435c-1.761,5.075-3.435,10.26-4.968,15.408l2.577,0.768
			c1.523-5.111,3.182-10.258,4.932-15.296L252.907,482.435z"/>
		<path style="fill:#FFFFFF;" d="M948.355,706.576c1.544-5.156,2.987-10.408,4.298-15.613l-2.608-0.655
			c-1.295,5.165-2.736,10.381-4.265,15.501L948.355,706.576z"/>
		<path style="fill:#FFFFFF;" d="M929.76,454.867l2.459-1.086c-2.171-4.898-4.485-9.818-6.879-14.626l-2.405,1.198
			C925.31,445.125,927.605,450.01,929.76,454.867z"/>
		<path style="fill:#FFFFFF;" d="M879.61,373.191l2.083-1.698c-3.388-4.156-6.909-8.291-10.47-12.288l-2.005,1.79
			C872.752,364.961,876.246,369.065,879.61,373.191z"/>
		<path style="fill:#FFFFFF;" d="M768.459,925.375c4.726-2.489,9.469-5.128,14.086-7.827l-1.356-2.32
			c-4.583,2.685-9.287,5.299-13.982,7.77L768.459,925.375z"/>
		<path style="fill:#FFFFFF;" d="M898.722,398.885l2.223-1.506c-2.999-4.434-6.142-8.857-9.332-13.155l-2.16,1.605
			C892.622,390.095,895.74,394.486,898.722,398.885z"/>
		<path style="fill:#FFFFFF;" d="M599.287,239.329l0.005-2.687c-5.357-0.012-10.792,0.102-16.159,0.329l0.117,2.684
			C588.573,239.429,593.969,239.319,599.287,239.329z"/>
		<path style="fill:#FFFFFF;" d="M550.514,242.519l0.779-0.105c5.296-0.69,10.663-1.271,15.951-1.728l-0.233-2.678
			c-5.326,0.461-10.729,1.047-16.07,1.743l-0.776,0.101L550.514,242.519z"/>
		<path style="fill:#FFFFFF;" d="M631.323,240.805l0.245-2.677c-5.341-0.484-10.768-0.853-16.121-1.1l-0.124,2.683
			C620.644,239.958,626.024,240.324,631.323,240.805z"/>
		<path style="fill:#FFFFFF;" d="M725.021,262.189l0.946-2.517c-5.05-1.887-10.191-3.683-15.287-5.335l-0.831,2.556
			C714.909,258.532,720.011,260.315,725.021,262.189z"/>
		<path style="fill:#FFFFFF;" d="M694.454,252.279l0.713-2.593c-5.166-1.425-10.452-2.755-15.709-3.956l-0.594,2.622
			C684.075,249.54,689.322,250.863,694.454,252.279z"/>
		<path style="fill:#FFFFFF;" d="M663.103,245.124l0.485-2.643c-5.286-0.961-10.658-1.814-15.963-2.534l-0.361,2.663
			C652.533,243.326,657.862,244.173,663.103,245.124z"/>
		<path style="fill:#FFFFFF;" d="M915.474,426.156l2.345-1.304c-2.6-4.686-5.333-9.369-8.126-13.922l-2.293,1.407
			C910.172,416.855,912.89,421.506,915.474,426.156z"/>
		<path style="fill:#FFFFFF;" d="M869.762,846.43c3.582-3.992,7.128-8.109,10.534-12.25l-2.078-1.709
			c-3.379,4.11-6.898,8.201-10.461,12.161L869.762,846.43z"/>
		<path style="fill:#FFFFFF;" d="M890.283,821.477c3.216-4.283,6.391-8.699,9.421-13.131l-2.214-1.521
			c-3.015,4.399-6.16,8.787-9.354,13.036L890.283,821.477z"/>
		<path style="fill:#FFFFFF;" d="M908.543,794.812c2.839-4.557,5.604-9.24,8.241-13.914l-2.345-1.319
			c-2.612,4.641-5.363,9.29-8.175,13.811L908.543,794.812z"/>
		<path style="fill:#FFFFFF;" d="M796.281,909.104c4.489-2.904,8.984-5.946,13.352-9.051l-1.553-2.194
			c-4.343,3.086-8.802,6.108-13.258,8.984L796.281,909.104z"/>
		<path style="fill:#FFFFFF;" d="M924.396,766.628c2.427-4.792,4.772-9.701,6.985-14.591l-2.453-1.108
			c-2.19,4.857-4.522,9.732-6.928,14.489L924.396,766.628z"/>
		<path style="fill:#FFFFFF;" d="M822.572,890.417c4.219-3.286,8.426-6.719,12.512-10.205l-1.744-2.046
			c-4.056,3.462-8.231,6.867-12.417,10.132L822.572,890.417z"/>
		<path style="fill:#FFFFFF;" d="M847.132,869.47c3.922-3.662,7.813-7.453,11.565-11.272l-1.92-1.883
			c-3.722,3.793-7.585,7.558-11.479,11.185L847.132,869.47z"/>
		<path style="fill:#FFFFFF;" d="M956.657,546.993l2.656-0.408c-0.815-5.326-1.756-10.68-2.79-15.914l-2.639,0.521
			C954.913,536.388,955.847,541.704,956.657,546.993z"/>
		<path style="fill:#FFFFFF;" d="M937.703,737.144c1.993-4.984,3.898-10.088,5.666-15.165l-2.539-0.883
			c-1.753,5.038-3.646,10.102-5.623,15.049L937.703,737.144z"/>
		<path style="fill:#FFFFFF;" d="M941.439,484.739l2.548-0.866c-1.731-5.078-3.6-10.185-5.55-15.176l-2.503,0.977
			C937.873,474.631,939.727,479.696,941.439,484.739z"/>
		<path style="fill:#FFFFFF;" d="M950.424,515.529l2.608-0.637c-1.268-5.202-2.675-10.455-4.177-15.608l-2.584,0.752
			C947.767,505.153,949.162,510.364,950.424,515.529z"/>
		<path style="fill:#FFFFFF;" d="M962.808,578.71c-0.339-5.326-0.813-10.742-1.397-16.098l-2.67,0.291
			c0.58,5.317,1.044,10.695,1.39,15.982L962.808,578.71z"/>
		<path style="fill:#FFFFFF;" d="M956.244,675.166c1.074-5.253,2.045-10.604,2.882-15.902l-2.654-0.42
			c-0.831,5.258-1.792,10.57-2.857,15.786L956.244,675.166z"/>
		<path style="fill:#FFFFFF;" d="M961.292,643.249c0.603-5.326,1.092-10.742,1.455-16.095l-2.684-0.181
			c-0.361,5.313-0.841,10.684-1.441,15.976L961.292,643.249z"/>
		<path style="fill:#FFFFFF;" d="M963.484,611.009c0.124-5.362,0.131-10.801,0.021-16.158l-2.688,0.058
			c0.109,5.317,0.101,10.713-0.021,16.039L963.484,611.009z"/>
	</g>
</g>
<path style="fill:#FFFFFF;" d="M914.975,601.837c0,172.942-140.199,313.141-313.14,313.141
	c-172.946,0-313.146-140.198-313.146-313.141c0-172.945,140.199-313.145,313.146-313.145
	C774.775,288.692,914.975,428.892,914.975,601.837z"/>
<defs>
	<filter id="Adobe_OpacityMaskFilter" filterUnits="userSpaceOnUse" x="372.99" y="304.823" width="598.755" height="670.641">
		<feColorMatrix  type="matrix" values="1 0 0 0 0  0 1 0 0 0  0 0 1 0 0  0 0 0 1 0"/>
	</filter>
</defs>
<mask maskUnits="userSpaceOnUse" x="372.99" y="304.823" width="598.755" height="670.641" id="SVGID_1_">
	<g style="filter:url(#Adobe_OpacityMaskFilter);">
		<path style="fill:#FFFFFF;" d="M914.975,601.837c0,172.942-140.199,313.141-313.14,313.141
			c-172.946,0-313.146-140.198-313.146-313.141c0-172.945,140.199-313.145,313.146-313.145
			C774.775,288.692,914.975,428.892,914.975,601.837z"/>
	</g>
</mask>
<g style="mask:url(#SVGID_1_);">
	<path style="fill:#EDBDA9;" d="M435.509,755.976l-1.561,30.358h44.884l-1.931-120.523l-2.647,8.924l0.518-10.074l0.121-11.985
		l1.836,2.475l-0.08-5.033c-1.242-2.069-0.818-38.805-0.818-38.805c1.02-4.833,30.51-53.887,15.69-59.275
		c-5.111-1.859-14.517-0.112-15.534,4.725l-37.942,79.368c-0.037,0.164-0.052,0.313-0.073,0.477c0,0-12.389,21.699-15.881,40.533
		c-3.622,19.54,1.65,36.245,1.65,36.245L435.509,755.976z"/>
	<g>
		<path style="fill:#161D21;" d="M725.76,697.131c0,2.596-2.121,4.719-4.718,4.719H479.179c-2.595,0-4.719-2.123-4.719-4.719
			V388.798c0-2.596,2.125-4.717,4.719-4.717h241.863c2.597,0,4.718,2.121,4.718,4.717V697.131z"/>
		<rect x="485.629" y="396.96" style="fill:#FFFFFF;" width="229.269" height="290.364"/>
		<g>
			<g>
				<polygon style="fill:#E6E7E8;" points="668.519,396.96 484.685,396.96 484.685,654.691 715.54,654.691 715.54,443.984 				"/>
			</g>
			<g>
				<polygon style="fill:#FFFFFF;" points="668.519,396.96 484.685,396.96 484.685,688.963 715.54,688.963 715.54,443.984 
					668.519,443.984 				"/>
			</g>
		</g>
		<g>
			<g>
				<rect x="579.016" y="473.439" style="fill:#B0B0B0;" width="50.446" height="6.444"/>
				<rect x="579.016" y="499.81" style="fill:#B0B0B0;" width="111.468" height="6.436"/>
				<rect x="579.016" y="514.459" style="fill:#B0B0B0;" width="111.468" height="6.446"/>
				<rect x="579.016" y="529.102" style="fill:#B0B0B0;" width="111.468" height="6.447"/>
				<rect x="579.016" y="543.752" style="fill:#B0B0B0;" width="111.468" height="6.447"/>
			</g>
			<g>
				<rect x="579.016" y="558.427" style="fill:#B0B0B0;" width="111.468" height="6.441"/>
				<rect x="579.016" y="573.074" style="fill:#B0B0B0;" width="111.468" height="6.445"/>
				<rect x="579.016" y="587.721" style="fill:#B0B0B0;" width="111.468" height="6.442"/>
				<rect x="579.016" y="602.373" style="fill:#B0B0B0;" width="111.468" height="6.444"/>
			</g>
			<g>
				<rect x="579.016" y="616.943" style="fill:#B0B0B0;" width="111.468" height="6.448"/>
				<rect x="579.016" y="631.598" style="fill:#B0B0B0;" width="111.468" height="6.44"/>
				<rect x="579.016" y="646.241" style="fill:#B0B0B0;" width="111.468" height="6.454"/>
			</g>
		</g>
		<rect x="484.685" y="396.96" style="fill:#FFD11D;" width="183.835" height="13.536"/>
		<g>
			<polygon style="fill:#EBE5EE;" points="578.375,417.654 572.625,417.654 572.625,416.228 578.682,416.228 			"/>
			<polygon style="fill:#EBE5EE;" points="621.182,417.654 626.693,417.654 626.693,416.228 620.879,416.228 			"/>
			<path style="fill:#F76031;" d="M552.297,376.857v42.246h20.337c0,0-0.006-3.772,0-3.788c0,0,54.032-0.001,54.032,0.025v3.763
				h20.705v-42.246H552.297z"/>
			<g>
				<path style="fill:#EBE5EE;" d="M589.405,352.172l-13.728,64.436h2.919l14.091-66.151l-1.107-0.45
					c-8.333-3.383-13.723-11.376-13.723-20.357c0-12.117,9.859-21.975,21.979-21.975c12.119,0,21.974,9.858,21.974,21.975
					c0,9.051-5.446,17.063-13.87,20.411l-1.118,0.447l14.141,66.1h2.916l-13.773-64.368c8.885-4.029,14.56-12.769,14.56-22.59
					c0-13.691-11.134-24.827-24.828-24.827c-13.691,0-24.833,11.135-24.833,24.827C575.003,339.397,580.617,348.112,589.405,352.172
					z"/>
			</g>
		</g>
		<g>
			<g>
				<g>
					<g>
						<rect x="550.21" y="600.109" style="fill:#B0B0B0;" width="3.115" height="3.111"/>
					</g>
					<g>
						<path style="fill:#B0B0B0;" d="M553.325,606.517v3.294h-3.115v-3.294H553.325z M553.325,613.107v3.296h-3.115v-3.296H553.325z
							 M553.325,619.698v3.296h-3.115v-3.296H553.325z M553.325,626.291v3.292h-3.115v-3.292H553.325z M553.325,632.88v3.296h-3.115
							v-3.296H553.325z M553.325,639.47v3.299h-3.115v-3.299H553.325z M553.325,646.063v3.292h-3.115v-3.292H553.325z"/>
					</g>
					<g>
						<rect x="550.21" y="652.65" style="fill:#B0B0B0;" width="3.115" height="3.113"/>
					</g>
					<g>
						<path style="fill:#B0B0B0;" d="M546.916,652.65v3.113h-3.295v-3.113H546.916z M540.327,652.65v3.113h-3.297v-3.113H540.327z
							 M533.734,652.65v3.113h-3.295v-3.113H533.734z M527.146,652.65v3.113h-3.297v-3.113H527.146z M520.556,652.65v3.113h-3.297
							v-3.113H520.556z M513.961,652.65v3.113h-3.294v-3.113H513.961z M507.371,652.65v3.113h-3.294v-3.113H507.371z"/>
					</g>
					<g>
						<rect x="497.669" y="652.65" style="fill:#B0B0B0;" width="3.114" height="3.113"/>
					</g>
					<g>
						<path style="fill:#B0B0B0;" d="M500.783,606.517v3.294h-3.114v-3.294H500.783z M500.783,613.107v3.296h-3.114v-3.296H500.783z
							 M500.783,619.698v3.296h-3.114v-3.296H500.783z M500.783,626.291v3.295h-3.114v-3.295H500.783z M500.783,632.88v3.296h-3.114
							v-3.296H500.783z M500.783,639.47v3.299h-3.114v-3.299H500.783z M500.783,646.063v3.292h-3.114v-3.292H500.783z"/>
					</g>
					<g>
						<rect x="497.669" y="600.109" style="fill:#B0B0B0;" width="3.114" height="3.111"/>
					</g>
					<g>
						<path style="fill:#B0B0B0;" d="M546.916,600.109v3.111h-3.295v-3.111H546.916z M540.327,600.109v3.111h-3.297v-3.111H540.327z
							 M533.734,600.109v3.111h-3.295v-3.111H533.734z M527.144,600.109v3.111h-3.294v-3.111H527.144z M520.556,600.109v3.111
							h-3.297v-3.111H520.556z M513.961,600.109v3.111h-3.294v-3.111H513.961z M507.371,600.109v3.111h-3.294v-3.111H507.371z"/>
					</g>
				</g>
				<g>
					<g>
						<rect x="550.21" y="534.185" style="fill:#B0B0B0;" width="3.115" height="3.113"/>
					</g>
					<g>
						<path style="fill:#B0B0B0;" d="M553.325,540.59v3.298h-3.115v-3.298H553.325z M553.325,547.183v3.296h-3.115v-3.296H553.325z
							 M553.325,553.771v3.296h-3.115v-3.296H553.325z M553.325,560.364v3.297h-3.115v-3.297H553.325z M553.325,566.955v3.298
							h-3.115v-3.298H553.325z M553.325,573.547v3.296h-3.115v-3.296H553.325z M553.325,580.138v3.296h-3.115v-3.296H553.325z"/>
					</g>
					<g>
						<rect x="550.21" y="586.729" style="fill:#B0B0B0;" width="3.115" height="3.112"/>
					</g>
					<g>
						<path style="fill:#B0B0B0;" d="M546.916,586.729v3.112h-3.295v-3.112H546.916z M540.327,586.729v3.112h-3.297v-3.112H540.327z
							 M533.734,586.729v3.112h-3.295v-3.112H533.734z M527.146,586.729v3.112h-3.297v-3.112H527.146z M520.556,586.729v3.112
							h-3.297v-3.112H520.556z M513.961,586.729v3.112h-3.294v-3.112H513.961z M507.371,586.729v3.112h-3.294v-3.112H507.371z"/>
					</g>
					<g>
						<rect x="497.669" y="586.729" style="fill:#B0B0B0;" width="3.114" height="3.112"/>
					</g>
					<g>
						<path style="fill:#B0B0B0;" d="M500.783,540.59v3.298h-3.114v-3.298H500.783z M500.783,547.183v3.296h-3.114v-3.296H500.783z
							 M500.783,553.771v3.296h-3.114v-3.296H500.783z M500.783,560.364v3.297h-3.114v-3.297H500.783z M500.783,566.955v3.298
							h-3.114v-3.298H500.783z M500.783,573.547v3.296h-3.114v-3.296H500.783z M500.783,580.138v3.296h-3.114v-3.296H500.783z"/>
					</g>
					<g>
						<rect x="497.669" y="534.185" style="fill:#B0B0B0;" width="3.114" height="3.113"/>
					</g>
					<g>
						<path style="fill:#B0B0B0;" d="M546.916,534.185v3.113h-3.295v-3.113H546.916z M540.327,534.185v3.113h-3.297v-3.113H540.327z
							 M533.734,534.185v3.113h-3.295v-3.113H533.734z M527.144,534.185v3.113h-3.294v-3.113H527.144z M520.556,534.185v3.113
							h-3.297v-3.113H520.556z M513.961,534.185v3.113h-3.294v-3.113H513.961z M507.371,534.185v3.113h-3.294v-3.113H507.371z"/>
					</g>
				</g>
				<g>
					<g>
						<rect x="550.21" y="468.26" style="fill:#B0B0B0;" width="3.115" height="3.114"/>
					</g>
					<g>
						<path style="fill:#B0B0B0;" d="M553.325,474.67v3.297h-3.115v-3.297H553.325z M553.325,481.258v3.296h-3.115v-3.296H553.325z
							 M553.325,487.851v3.294h-3.115v-3.294H553.325z M553.325,494.44v3.294h-3.115v-3.294H553.325z M553.325,501.032v3.296h-3.115
							v-3.296H553.325z M553.325,507.624v3.296h-3.115v-3.296H553.325z M553.325,514.214v3.296h-3.115v-3.296H553.325z"/>
					</g>
					<g>
						<rect x="550.21" y="520.802" style="fill:#B0B0B0;" width="3.115" height="3.115"/>
					</g>
					<g>
						<path style="fill:#B0B0B0;" d="M546.916,520.802v3.115h-3.295v-3.115H546.916z M540.327,520.802v3.115h-3.297v-3.115H540.327z
							 M533.734,520.802v3.115h-3.295v-3.115H533.734z M527.146,520.802v3.115h-3.297v-3.115H527.146z M520.556,520.802v3.115
							h-3.297v-3.115H520.556z M513.961,520.802v3.115h-3.294v-3.115H513.961z M507.371,520.802v3.115h-3.294v-3.115H507.371z"/>
					</g>
					<g>
						<rect x="497.669" y="520.802" style="fill:#B0B0B0;" width="3.114" height="3.115"/>
					</g>
					<g>
						<path style="fill:#B0B0B0;" d="M500.783,474.67v3.292h-3.114v-3.292H500.783z M500.783,481.258v3.296h-3.114v-3.296H500.783z
							 M500.783,487.851v3.293h-3.114v-3.293H500.783z M500.783,494.44v3.294h-3.114v-3.294H500.783z M500.783,501.032v3.296h-3.114
							v-3.296H500.783z M500.783,507.624v3.296h-3.114v-3.296H500.783z M500.783,514.213v3.292h-3.114v-3.292H500.783z"/>
					</g>
					<g>
						<rect x="497.669" y="468.26" style="fill:#B0B0B0;" width="3.114" height="3.114"/>
					</g>
					<g>
						<path style="fill:#B0B0B0;" d="M546.916,468.26v3.114h-3.295v-3.114H546.916z M540.327,468.26v3.114h-3.297v-3.114H540.327z
							 M533.734,468.26v3.114h-3.295v-3.114H533.734z M527.144,468.26v3.114h-3.294v-3.114H527.144z M520.556,468.26v3.114h-3.297
							v-3.114H520.556z M513.961,468.26v3.114h-3.294v-3.114H513.961z M507.371,468.26v3.114h-3.294v-3.114H507.371z"/>
					</g>
				</g>
			</g>
			<rect x="512.891" y="615.828" style="fill:#B0B0B0;" width="25.663" height="25.662"/>
			<rect x="512.891" y="549.032" style="fill:#B0B0B0;" width="25.663" height="25.665"/>
			<rect x="512.891" y="483.248" style="fill:#B0B0B0;" width="25.663" height="25.663"/>
		</g>
		<g>
			<g>
				<polygon style="fill:#161D21;" points="520.026,488.98 516.688,492.317 530.202,505.829 561.896,474.134 558.56,470.799 
					530.202,499.157 				"/>
			</g>
		</g>
		<g>
			<g>
				<polygon style="fill:#161D21;" points="520.026,555.459 516.688,558.795 530.202,572.308 561.896,540.613 558.56,537.277 
					530.202,565.636 				"/>
			</g>
		</g>
		<g>
			<g>
				<polygon style="fill:#161D21;" points="520.026,621.288 516.688,624.623 530.202,638.135 561.896,606.44 558.56,603.104 
					530.202,631.462 				"/>
			</g>
		</g>
	</g>
	<g>
		<path style="fill:#EDBDA9;" d="M442.388,786.334l68.113,3.117c0.868-27.098,5.026-25.803,9.512-32.336
			c7.47-10.879,10.455-26.488,9.698-39.368c0-23.689-13.253-45.009-13.174-45.228l-3.127-60.422
			c1.414-14.152-1.34-23.63-6.672-26.556c-9.206-5.06-18.402-4.014-24.467,4.59l-5.039,73.933c0,0-8.523,20.184-2.605,51.752
			l-18.563,41.02C450.767,767.781,446.241,777.573,442.388,786.334z"/>
		<polygon style="fill:#F1F2F2;" points="539.511,934.64 549.667,792.562 398.156,774.722 384.848,936.307 		"/>
		<polygon style="fill:#161D21;" points="545.199,975.464 553.911,825.719 385.318,803.505 372.99,975.464 		"/>
		<path style="fill:#161D21;" d="M524.692,812.389c2.968,0.47,5.769-1.533,6.242-4.506c0.473-2.971-1.545-5.758-4.507-6.232
			c-2.96-0.479-5.772,1.536-6.242,4.502C519.709,809.12,521.729,811.909,524.692,812.389z"/>
	</g>
	<path style="opacity:0.3;fill:#FFFFFF;" d="M506.606,605.288c0,0-5.868,1.237-11.268,1.237c-4.614,0-8.881-1.237-8.881-1.237
		V591.96c0,0,3.637-3.483,10.352-3.251c6.439,0.232,9.797,3.251,9.797,3.251V605.288z"/>
	<g>
		<path style="fill:#EDBDA9;" d="M790.761,618.006l20.322,19.199l-29.851,28.507l-75.267-81.379l1.233-1.793l-3.417-2.342
			l-3.47-2.376l-1.007-0.691l-3.143-3.395c-0.488-2.168-10.107-10.611-10.107-10.611c-3.748-2.566-16.349,55.139-37.391,46.434
			c-13.783-5.702,26.609-72.181,38.348-76.147l20.527,3.081c0.128,0.086,8.963,2.576,9.083,2.671c0,0,18.704,7.583,32.986,17.891
			c14.823,10.695,21.927,25.15,21.927,25.15L790.761,618.006z"/>
		<g>
			<path style="fill:#F76031;" d="M849.419,578.813c0.047,0.469,0.447,0.814,0.878,0.771l12.359-1.259
				c0.436-0.044,0.752-0.464,0.705-0.931l-2.474-24.303c-0.048-0.465-0.444-0.813-0.879-0.768l-12.36,1.258
				c-0.429,0.044-0.752,0.464-0.703,0.93L849.419,578.813z"/>
			<path style="fill:#FFFFFF;" d="M843.175,554.036l4.462-0.453l2.648,26.002l-4.462,0.454c-0.434,0.045-0.827-0.302-0.876-0.771
				l-2.476-24.303C842.424,554.5,842.741,554.08,843.175,554.036z"/>
			<polygon style="fill:#FFD11D;" points="648.082,573.896 657.94,572.892 787.575,559.697 808.969,557.518 842.78,554.077 
				845.429,580.08 811.617,583.523 790.223,585.7 660.588,598.899 650.73,599.903 607.808,604.273 605.159,578.265 			"/>
			<polygon style="fill:#161D21;" points="649.052,583.407 658.907,582.403 788.542,569.205 809.938,567.027 843.748,563.584 
				844.459,570.563 810.647,574.006 789.252,576.185 659.619,589.384 649.763,590.387 606.838,594.757 606.129,587.778 			"/>
			<polygon style="fill:#FFFFFF;" points="607.927,604.331 613.258,590.585 605.271,578.18 576.146,594.364 			"/>
			<polygon style="fill:#161D21;" points="588.294,587.608 589.405,598.517 576.146,594.364 			"/>
		</g>
		<path style="fill:#EDBDA9;" d="M805.469,642.566l-43.32,45.331c-6.339-5.637-20.631-7.803-26.958-11.422
			c-11.842-6.781-23.685-15.015-31.359-24.063c-15.046-15.754-19.771-38.351-19.964-38.444l-32.006-37.679
			c-9.927-8.515-14.119-16.567-12.433-21.897c2.91-9.214,9.691-14.357,19.189-12.492l46.018,41.478c0,0,18.488,8.011,34.606,32.764
			l38.397,15.491C788.108,635.545,797.342,639.185,805.469,642.566z"/>
		<path style="opacity:0.3;fill:#FFFFFF;" d="M651.916,566.942c0,0,4.689-2.906,8.282-6.336c3.066-2.928,5.121-6.463,5.121-6.463
			l-8.467-8.866c0,0-4.632-0.004-8.952,4.415c-4.133,4.245-4.449,8.385-4.449,8.385L651.916,566.942z"/>
		<polygon style="fill:#F1F2F2;" points="835.073,802.878 738.081,714.844 827.507,606.747 938.987,705.755 		"/>
		<polygon style="fill:#161D21;" points="857.218,833.644 756.314,739.59 854.327,617.736 971.745,724.265 		"/>
		<path style="fill:#161D21;" d="M767.279,712.164c-1.673,2.199-4.81,2.644-7.013,0.969c-2.204-1.674-2.632-4.81-0.96-7.008
			c1.662-2.199,4.811-2.643,7.009-0.971C768.518,706.824,768.947,709.964,767.279,712.164z"/>
	</g>
</g>
</svg>
